# xmcd
#
# Track frame offsets:
#	150
#	17390
#	33886
#	50966
#	68440
#	89406
#	108764
#	125740
#	143363
#	162901
#	180574
#	197104
#	216447
#	232538
#	250209
#	267254
#	284020
#	297819
#	321851
#	337482
#
# Disc length: 4735
#
# Revision: 1
# Processed by: cddbd v1.5.1PL0 Copyright (c) Steve Scherf et al.
# Submitted via: dBpowerAMP V4.0
# Normalized: r0:DSETVAR1,TDELIM( - )
#
DISCID=27127d14
DTITLE=Various Artist - The Best Hits Of 90.s vol.2 CD - 1
DYEAR=2004
DGENRE=Dance
TTITLE0=E- Type - Angels Crying
TTITLE1=2 Unlimited - The Real Thing
TTITLE2=Scooter - How Much IS The Fish
TTITLE3=MAsterboy - Anybody
TTITLE4=Culture Beat - Anything
TTITLE5=Ice Mc - Think About The Way
TTITLE6=Haddaway - Fly Away
TTITLE7=Dj Bobo - Freedom
TTITLE8=C and C Music Facoty - Gonna Make You Sweet
TTITLE9=Mr President - Up n Away
TTITLE10=Snap - The Power
TTITLE11=La Bouche - You Want Forget Me
TTITLE12=KLF - Last Train To Trancentral
TTITLE13=Imperio - Atlantis
TTITLE14=M.C. Sar and Real Mc Coy - Automatic Lover
TTITLE15=Aqua - Roses are Red
TTITLE16=Daze - Tamagotchi
TTITLE17=Loft - Wake The World
TTITLE18=Erotic - Max Don.t Have Sex With Your ex
TTITLE19=Dj Dado - X-Files
EXTD=
EXTT0=
EXTT1=
EXTT2=
EXTT3=
EXTT4=
EXTT5=
EXTT6=
EXTT7=
EXTT8=
EXTT9=
EXTT10=
EXTT11=
EXTT12=
EXTT13=
EXTT14=
EXTT15=
EXTT16=
EXTT17=
EXTT18=
EXTT19=
PLAYORDER=
